<svg width="473" height="186" viewBox="0 0 473 186" fill="none" xmlns="http://www.w3.org/2000/svg">
<g filter="url(#filter0_d_0_1)">
<path d="M143.015 124.559C143.015 131.801 141.631 138.597 138.864 144.944C136.097 151.292 132.313 156.867 127.512 161.668C122.792 166.388 117.258 170.132 110.91 172.898C104.562 175.665 97.7673 177.049 90.5244 177.049H3V2H90.5244C97.7673 2 104.562 3.38346 110.91 6.15039C117.258 8.91732 122.792 12.7015 127.512 17.5029C132.313 22.223 136.097 27.7568 138.864 34.1045C141.631 40.4521 143.015 47.2474 143.015 54.4902C143.015 57.7454 142.567 61.082 141.672 64.5C140.777 67.918 139.515 71.2139 137.888 74.3877C136.26 77.5615 134.307 80.4505 132.028 83.0547C129.75 85.6589 127.227 87.8154 124.46 89.5244C127.308 91.0706 129.872 93.1865 132.15 95.8721C134.429 98.4762 136.382 101.365 138.01 104.539C139.637 107.713 140.858 111.049 141.672 114.549C142.567 117.967 143.015 121.303 143.015 124.559ZM38.0342 142.015H90.5244C92.9658 142.015 95.2445 141.567 97.3604 140.672C99.4762 139.777 101.307 138.556 102.854 137.01C104.481 135.382 105.743 133.51 106.638 131.395C107.533 129.279 107.98 127 107.98 124.559C107.98 122.117 107.533 119.839 106.638 117.723C105.743 115.607 104.481 113.776 102.854 112.229C101.307 110.602 99.4762 109.34 97.3604 108.445C95.2445 107.55 92.9658 107.103 90.5244 107.103H38.0342V142.015ZM38.0342 72.0684H90.5244C92.9658 72.0684 95.2445 71.6208 97.3604 70.7256C99.4762 69.8304 101.307 68.6097 102.854 67.0635C104.481 65.4359 105.743 63.5641 106.638 61.4482C107.533 59.251 107.98 56.9316 107.98 54.4902C107.98 52.0488 107.533 49.7702 106.638 47.6543C105.743 45.5384 104.481 43.7074 102.854 42.1611C101.307 40.5335 99.4762 39.2721 97.3604 38.377C95.2445 37.4818 92.9658 37.0342 90.5244 37.0342H38.0342V72.0684Z" fill="#0779C0"/>
</g>
<g filter="url(#filter1_d_0_1)">
<path d="M184.034 37.0342V107.103H219.068C223.87 107.103 228.386 106.207 232.618 104.417C236.85 102.545 240.553 100.022 243.727 96.8486C246.9 93.6748 249.382 89.972 251.173 85.7402C253.045 81.4271 253.98 76.8698 253.98 72.0684C253.98 67.2669 253.045 62.7503 251.173 58.5186C249.382 54.2054 246.9 50.4619 243.727 47.2881C240.553 44.1143 236.85 41.6322 232.618 39.8418C228.386 37.9701 223.87 37.0342 219.068 37.0342H184.034ZM184.034 177.049H149V2H219.068C225.497 2 231.682 2.85449 237.623 4.56348C243.564 6.19108 249.098 8.55111 254.225 11.6436C259.433 14.6546 264.153 18.3167 268.385 22.6299C272.698 26.8617 276.36 31.5817 279.371 36.79C282.464 41.9984 284.824 47.5729 286.451 53.5137C288.16 59.4544 289.015 65.6393 289.015 72.0684C289.015 81.6712 287.184 90.7451 283.521 99.29C279.859 107.754 274.854 115.159 268.507 121.507C262.159 127.854 254.713 132.859 246.168 136.521C237.704 140.184 228.671 142.015 219.068 142.015H184.034V177.049Z" fill="#0779C0"/>
</g>
<g filter="url(#filter2_d_0_1)">
<path d="M468 177H433.273V52.3453C433.273 49.9106 432.787 47.6382 431.816 45.5282C430.925 43.4182 429.671 41.5922 428.052 40.0502C426.514 38.4271 424.692 37.1692 422.588 36.2765C420.483 35.3838 418.216 34.9374 415.788 34.9374C413.359 34.9374 411.093 35.3838 408.988 36.2765C406.883 37.1692 405.022 38.4271 403.403 40.0502C401.865 41.5922 400.65 43.4182 399.76 45.5282C398.87 47.6382 398.424 49.9106 398.424 52.3453V177H363.576V52.3453C363.576 49.9106 363.13 47.6382 362.24 45.5282C361.35 43.4182 360.095 41.5922 358.476 40.0502C356.938 38.4271 355.117 37.1692 353.012 36.2765C350.907 35.3838 348.641 34.9374 346.212 34.9374C343.784 34.9374 341.517 35.3838 339.412 36.2765C337.308 37.1692 335.446 38.4271 333.827 40.0502C332.289 41.5922 331.075 43.4182 330.184 45.5282C329.294 47.6382 328.849 49.9106 328.849 52.3453V177H294V52.3453C294 45.1224 295.336 38.3459 298.007 32.0158C300.759 25.6045 304.483 20.0454 309.178 15.3384C313.954 10.5502 319.499 6.81706 325.813 4.13893C332.208 1.37964 339.008 0 346.212 0C352.688 0 358.921 1.17675 364.911 3.53026C370.902 5.80261 376.285 9.12999 381.061 13.5124C385.837 9.12999 391.179 5.80261 397.089 3.53026C403.079 1.17675 409.312 0 415.788 0C422.992 0 429.752 1.37964 436.066 4.13893C442.461 6.81706 448.006 10.5502 452.701 15.3384C457.477 20.0454 461.2 25.6045 463.872 32.0158C466.624 38.3459 468 45.1224 468 52.3453V177Z" fill="#0779C0"/>
</g>
<defs>
<filter id="filter0_d_0_1" x="0" y="2" width="148.015" height="183.049" filterUnits="userSpaceOnUse" color-interpolation-filters="sRGB">
<feFlood flood-opacity="0" result="BackgroundImageFix"/>
<feColorMatrix in="SourceAlpha" type="matrix" values="0 0 0 0 0 0 0 0 0 0 0 0 0 0 0 0 0 0 127 0" result="hardAlpha"/>
<feOffset dx="1" dy="4"/>
<feGaussianBlur stdDeviation="2"/>
<feComposite in2="hardAlpha" operator="out"/>
<feColorMatrix type="matrix" values="0 0 0 0 0 0 0 0 0 0 0 0 0 0 0 0 0 0 0.25 0"/>
<feBlend mode="normal" in2="BackgroundImageFix" result="effect1_dropShadow_0_1"/>
<feBlend mode="normal" in="SourceGraphic" in2="effect1_dropShadow_0_1" result="shape"/>
</filter>
<filter id="filter1_d_0_1" x="146" y="2" width="148.015" height="183.049" filterUnits="userSpaceOnUse" color-interpolation-filters="sRGB">
<feFlood flood-opacity="0" result="BackgroundImageFix"/>
<feColorMatrix in="SourceAlpha" type="matrix" values="0 0 0 0 0 0 0 0 0 0 0 0 0 0 0 0 0 0 127 0" result="hardAlpha"/>
<feOffset dx="1" dy="4"/>
<feGaussianBlur stdDeviation="2"/>
<feComposite in2="hardAlpha" operator="out"/>
<feColorMatrix type="matrix" values="0 0 0 0 0 0 0 0 0 0 0 0 0 0 0 0 0 0 0.25 0"/>
<feBlend mode="normal" in2="BackgroundImageFix" result="effect1_dropShadow_0_1"/>
<feBlend mode="normal" in="SourceGraphic" in2="effect1_dropShadow_0_1" result="shape"/>
</filter>
<filter id="filter2_d_0_1" x="291" y="0" width="182" height="185" filterUnits="userSpaceOnUse" color-interpolation-filters="sRGB">
<feFlood flood-opacity="0" result="BackgroundImageFix"/>
<feColorMatrix in="SourceAlpha" type="matrix" values="0 0 0 0 0 0 0 0 0 0 0 0 0 0 0 0 0 0 127 0" result="hardAlpha"/>
<feOffset dx="1" dy="4"/>
<feGaussianBlur stdDeviation="2"/>
<feComposite in2="hardAlpha" operator="out"/>
<feColorMatrix type="matrix" values="0 0 0 0 0 0 0 0 0 0 0 0 0 0 0 0 0 0 0.25 0"/>
<feBlend mode="normal" in2="BackgroundImageFix" result="effect1_dropShadow_0_1"/>
<feBlend mode="normal" in="SourceGraphic" in2="effect1_dropShadow_0_1" result="shape"/>
</filter>
</defs>
</svg>
